<svg width="48" height="48" viewBox="0 0 48 48" fill="none" xmlns="http://www.w3.org/2000/svg">
<g id="gift">
<path id="vector" fill-rule="evenodd" clip-rule="evenodd" d="M35.3198 9.33996C34.3598 7.37996 31.5998 7.03996 30.2198 8.65996C29.0598 10.24 27.5998 12.3 26.3798 14.02C28.4798 14 30.9798 13.98 32.9398 13.94C35.0598 13.72 36.3798 11.26 35.3398 9.33996H35.3198ZM24.3398 12.74C25.6598 10.92 27.1398 8.75996 28.4198 7.07996C33.2198 1.87996 41.0398 8.51996 36.9598 14.18H42.1998V23.8H39.5798V42.8H8.4198V23.8H5.7998V14.18H11.7198C7.6398 8.49996 15.4598 1.87996 20.2598 7.07996C21.4798 8.67996 23.0598 10.98 24.3398 12.74ZM23.3798 16.58H8.1998V21.36H23.3798V16.58ZM23.3798 23.8H10.8198V40.38H23.3798V23.8ZM25.7798 40.38H37.1798V23.8H25.7798V40.38ZM25.7798 21.38H39.8198V16.6H25.7798V21.38ZM22.3198 14.04C21.0998 12.32 19.6398 10.26 18.4798 8.67996C17.0798 7.03996 14.3398 7.39996 13.3798 9.35996C12.3398 11.28 13.6598 13.76 15.7798 13.96C17.7398 14 20.2398 14.02 22.3398 14.04H22.3198Z" fill="#707375"/>
</g>
</svg>
