<svg width="48" height="49" viewBox="0 0 48 49" fill="none" xmlns="http://www.w3.org/2000/svg">
<g id="lightbulb">
<path id="vector" d="M30.084 37.5136H17.944V35.1136H30.084V37.5136ZM22.544 33.0136C20.844 33.0136 19.244 33.0136 18.264 32.9936H17.084V28.3336C17.084 27.9936 17.004 27.6536 16.844 27.3336C16.704 27.0336 16.464 26.7536 16.204 26.5536C14.704 25.3736 13.484 23.8536 12.644 22.1536C11.804 20.4336 11.364 18.5336 11.344 16.6336C11.304 9.7536 16.844 4.0136 23.684 3.8736C26.324 3.7736 28.944 4.5736 31.144 6.0936C33.344 7.6136 34.984 9.7536 35.904 12.2736C36.804 14.7936 36.904 17.4936 36.164 20.0736C35.424 22.6536 33.924 24.8936 31.824 26.5536C31.544 26.7736 31.324 27.0536 31.164 27.3536C31.004 27.6736 30.924 28.0136 30.924 28.3536V33.0136H29.724C29.484 33.0136 25.824 33.0336 22.524 33.0336L22.544 33.0136ZM19.484 30.6136C22.084 30.6136 26.444 30.6136 28.544 30.6136V28.3336C28.544 27.6136 28.704 26.9136 29.024 26.2736C29.344 25.6336 29.804 25.0736 30.364 24.6336C32.064 23.2936 33.284 21.4736 33.884 19.3936C34.484 17.2936 34.424 15.1136 33.684 13.0536C32.944 11.0136 31.624 9.2736 29.824 8.0336C28.044 6.8136 25.924 6.1936 23.784 6.2336C18.244 6.3536 13.744 11.0136 13.784 16.5936C13.784 18.1336 14.144 19.6936 14.824 21.0736C15.504 22.4536 16.504 23.6936 17.704 24.6536C18.264 25.0936 18.724 25.6536 19.024 26.2736C19.324 26.9136 19.504 27.6136 19.504 28.3136V30.5936L19.484 30.6136ZM19.604 39.4336C19.604 41.8736 21.564 43.8336 24.004 43.8336C26.444 43.8336 28.404 41.8736 28.404 39.4336H19.604Z" fill="#707375"/>
</g>
</svg>
