<svg width="48" height="48" viewBox="0 0 48 48" fill="none" xmlns="http://www.w3.org/2000/svg">
<g id="lock-closed">
<path id="vector" fill-rule="evenodd" clip-rule="evenodd" d="M22.3004 30.6C22.3004 29.6 23.1004 28.8 24.1004 28.8H24.1204C25.1204 28.8 25.9204 29.6 25.9204 30.6C25.9204 31.6 25.1204 32.4 24.1204 32.4H24.1004C23.1004 32.4 22.3004 31.6 22.3004 30.6ZM40.1004 18.96V35C40.1004 38.96 36.8804 42.18 32.9204 42.18H7.90039V18.94H13.8604V15.96C13.8604 10.34 18.4204 5.76001 24.0404 5.76001C29.6604 5.76001 34.2204 10.34 34.2204 15.96V18.94H40.1004V18.96ZM16.2604 18.96H31.8204V15.98C31.8204 11.68 28.3204 8.18001 24.0404 8.18001C19.7604 8.18001 16.2604 11.68 16.2604 15.98V18.96ZM37.7004 21.36H10.3004V39.8H32.9204C35.5604 39.8 37.7004 37.66 37.7004 35.02V21.38V21.36Z" fill="#707375"/>
</g>
</svg>
