<svg width="48" height="48" viewBox="0 0 48 48" fill="none" xmlns="http://www.w3.org/2000/svg">
<g id="open-cooking">
<path id="vector" fill-rule="evenodd" clip-rule="evenodd" d="M6 11.62H10.94L10.98 12.78C11.2 20.1 11.76 27.76 14.52 34.66H33.46C34.78 31.16 35.68 25.98 36.24 21.46C36.54 19.06 36.74 16.88 36.88 15.3C36.94 14.52 36.98 13.88 37.02 13.44C37.02 13.22 37.04 13.06 37.06 12.94V12.82V12.78L37.12 11.64H42V14.04H39.38C39.36 14.44 39.32 14.94 39.26 15.52C39.12 17.12 38.92 19.34 38.62 21.78C38.02 26.62 37 32.54 35.38 36.36C34.64 38.12 33.74 39.82 32.68 41.46L32.32 42.02H15.68L15.32 41.46C14.26 39.82 13.38 38.1 12.62 36.36C9.56 29.22 8.88 21.34 8.62 14.04H6V11.64V11.62ZM32.4 37.06H15.6C16.02 37.92 16.48 38.76 17 39.6H31.02C31.52 38.78 32 37.92 32.42 37.06H32.4ZM21.54 9.32C22 7.9 22.5 7.06 23.54 6L25.26 7.66C24.48 8.46 24.16 8.98 23.82 10.06C23.5 11.06 23.86 11.8 24.66 13.04C24.72 13.12 24.78 13.2 24.82 13.3C25.54 14.4 26.54 15.92 26.38 17.9C26.28 19.18 25.82 20.18 25.28 21.06C25.04 21.46 24.78 21.84 24.52 22.2C24.5 22.22 24.48 22.26 24.46 22.28C24.18 22.68 23.92 23.06 23.68 23.46L21.62 22.22C21.9 21.74 22.2 21.3 22.48 20.92C22.48 20.9 22.52 20.86 22.54 20.84C22.8 20.46 23.02 20.14 23.22 19.82C23.64 19.14 23.9 18.5 23.96 17.74C24.04 16.6 23.48 15.74 22.68 14.5C22.66 14.46 22.62 14.42 22.6 14.38C21.82 13.18 20.8 11.52 21.5 9.36L21.54 9.32ZM28.14 10.72C28.62 9.42 29.14 8.66 30.18 7.7L31.8 9.46C31.02 10.16 30.72 10.62 30.4 11.52C30.12 12.26 30.4 12.84 31.22 13.96C31.28 14.04 31.34 14.12 31.4 14.2C32.12 15.16 33.16 16.58 33 18.44C32.9 19.64 32.42 20.56 31.88 21.34C31.64 21.7 31.36 22.04 31.12 22.36C31.1 22.38 31.08 22.42 31.06 22.44C30.78 22.8 30.52 23.12 30.3 23.48L28.3 22.14C28.6 21.7 28.9 21.32 29.16 20.96C29.16 20.94 29.2 20.92 29.22 20.9C29.48 20.56 29.7 20.28 29.9 20C30.32 19.4 30.56 18.88 30.62 18.24C30.7 17.32 30.18 16.62 29.34 15.44L29.3 15.4C28.54 14.34 27.42 12.78 28.18 10.72H28.14ZM15.24 10.72C15.72 9.42 16.24 8.66 17.28 7.7L18.9 9.46C18.12 10.16 17.82 10.62 17.5 11.52C17.22 12.26 17.5 12.84 18.32 13.96C18.38 14.04 18.44 14.12 18.5 14.2C19.22 15.16 20.26 16.58 20.1 18.44C20 19.64 19.52 20.56 18.98 21.34C18.74 21.7 18.46 22.04 18.22 22.36C18.2 22.38 18.18 22.42 18.16 22.44C17.88 22.8 17.62 23.12 17.4 23.48L15.4 22.14C15.7 21.7 16 21.32 16.26 20.96C16.26 20.94 16.3 20.92 16.32 20.9C16.58 20.56 16.8 20.28 17 19.98C17.42 19.38 17.66 18.86 17.72 18.22C17.8 17.3 17.28 16.6 16.44 15.42C16.44 15.42 16.42 15.38 16.4 15.38C15.64 14.32 14.52 12.76 15.28 10.7L15.24 10.72Z" fill="#707375"/>
</g>
</svg>
