<svg width="24" height="24" viewBox="0 0 24 24" fill="none" xmlns="http://www.w3.org/2000/svg">
<g id="icon">
<path id="vector" fill-rule="evenodd" clip-rule="evenodd" d="M3 2.8999H5.87L6.55 5.1199H21V9.2299C21 11.3799 19.25 13.1299 17.1 13.1299H9.01L9.56 14.7899H18.77V16.5899H8.25L6.91 12.4999L4.54 4.6999H3V2.8999ZM8.44 11.3299L7.1 6.9199H19.2V9.2299C19.2 10.3899 18.26 11.3299 17.1 11.3299H8.44ZM8.52 19.5999C8.52 18.7699 9.19 18.0999 10.02 18.0999C10.85 18.0999 11.52 18.7699 11.52 19.5999C11.52 20.4299 10.85 21.0999 10.02 21.0999C9.19 21.0999 8.52 20.4299 8.52 19.5999ZM14.79 19.5999C14.79 18.7699 15.46 18.0999 16.29 18.0999C17.12 18.0999 17.79 18.7699 17.79 19.5999C17.79 20.4299 17.12 21.0999 16.29 21.0999C15.46 21.0999 14.79 20.4299 14.79 19.5999Z" fill="white"/>
</g>
</svg>
