<svg width="48" height="49" viewBox="0 0 48 49" fill="none" xmlns="http://www.w3.org/2000/svg">
<g id="stirring-soft">
<path id="vector" d="M26.5201 25.9935C27.9001 27.2535 28.6401 29.2735 28.6401 31.5735C26.8001 31.2735 24.8201 30.7735 22.8201 30.0535C20.5401 29.2535 18.7001 28.3335 17.1601 27.4335C19.3601 25.3135 22.0401 24.2735 24.3201 24.8135L34.1601 4.31348L36.4201 5.33348L26.5201 25.9735V25.9935ZM30.3001 21.7135L29.2401 23.9135C35.1201 26.7335 38.0001 30.1535 37.4001 31.7735C37.0201 32.7535 35.2801 33.4135 32.7401 33.4735C31.3201 33.4735 29.9201 33.3535 28.5201 33.1335C26.5401 32.8135 24.4001 32.2935 22.2601 31.5135C19.8201 30.6535 17.7801 29.6335 16.0801 28.6135C12.0001 26.1535 10.0601 23.5335 10.5401 22.1735C10.9201 21.1735 12.8001 20.4535 15.7401 20.4535C17.9601 20.4535 20.8201 20.8935 24.0201 21.8935L25.0801 19.6735C21.8601 18.6735 18.5201 18.0335 15.6401 18.0335C12.0001 18.0335 9.10013 18.9935 8.22013 21.3335C7.06013 24.3935 10.1601 27.8735 14.7001 30.6135C16.7401 31.8535 19.0601 32.9335 21.4201 33.7935C23.6801 34.5935 25.9001 35.1535 28.0201 35.4935C29.6001 35.7535 31.2001 35.8935 32.8001 35.8935C36.5001 35.7935 38.9601 34.6135 39.7201 32.5935C41.1001 28.8935 36.3201 24.6135 30.3001 21.7135ZM16.2201 43.8735C12.7401 42.2735 11.8001 37.0535 14.0001 32.0335H14.0201C15.9001 33.1735 18.1801 34.2335 20.9001 35.2135C23.1201 36.0135 25.3401 36.5935 27.4601 36.9535C27.4201 37.0535 27.3801 37.1335 27.3401 37.2335C27.3001 37.3335 27.2601 37.4335 27.2201 37.5135C24.7401 42.6735 19.8001 45.5335 16.2001 43.8735H16.2201Z" fill="#707375"/>
</g>
</svg>
