<svg width="26" height="39" viewBox="0 0 26 39" fill="none" xmlns="http://www.w3.org/2000/svg">
<path d="M12.6603 25.5342C15.3109 22.5849 17.2523 20.0836 18.4843 18.0302C19.7536 15.9396 20.3883 13.8116 20.3883 11.6462C20.3883 9.33158 19.6229 7.48358 18.0923 6.10224C16.5616 4.68358 14.6576 3.97424 12.3803 3.97424C10.1776 3.97424 8.27358 4.60891 6.66825 5.87824C5.10025 7.11024 3.99892 8.90224 3.36425 11.2542L0.34025 10.6942C0.974917 7.70758 2.37492 5.33691 4.54025 3.58224C6.74292 1.79024 9.37492 0.894241 12.4363 0.894241C14.6389 0.894241 16.5989 1.37957 18.3163 2.35024C20.0336 3.28358 21.3589 4.57158 22.2923 6.21424C23.2256 7.81958 23.6923 9.59291 23.6923 11.5342C23.6923 14.1102 22.9829 16.5929 21.5643 18.9822C20.1829 21.3342 17.9803 24.1716 14.9563 27.4942L7.50825 35.6142H25.7643V38.7502H0.73225L12.6603 25.5342Z" fill="#00AC46"/>
</svg>
