<svg width="26" height="39" viewBox="0 0 26 39" fill="none" xmlns="http://www.w3.org/2000/svg">
<path d="M13.0523 38.1462C10.4016 38.1462 8.03092 37.6049 5.94025 36.5222C3.88692 35.4022 2.20692 33.8342 0.90025 31.8182L3.42025 29.9702C4.72692 31.7249 6.14558 33.0129 7.67625 33.8342C9.20692 34.6556 11.0176 35.0662 13.1083 35.0662C15.7216 35.0662 17.8309 34.3196 19.4363 32.8262C21.0416 31.3329 21.8443 29.3729 21.8443 26.9462C21.8443 24.4822 21.0603 22.5596 19.4923 21.1782C17.9243 19.7969 15.7403 19.1062 12.9402 19.1062H6.72425L19.0443 3.25824H1.23625V0.290243H24.8123L12.4363 16.1942C16.5056 16.2316 19.6416 17.2022 21.8443 19.1062C24.0469 20.9729 25.1483 23.5862 25.1483 26.9462C25.1483 29.1862 24.6256 31.1649 23.5803 32.8822C22.5349 34.5622 21.0976 35.8689 19.2683 36.8022C17.4389 37.6982 15.3669 38.1462 13.0523 38.1462Z" fill="#00AC46"/>
</svg>
