<svg width="112" height="112" viewBox="0 0 112 112" fill="none" xmlns="http://www.w3.org/2000/svg">
<g id="preparation-time_illustration">
<path id="vector" d="M87.1851 64.3498C80.9908 72.0801 69.0741 85.5629 56.4145 93.7851M88.5505 75.7545C84.0328 80.8846 78.3103 86.8178 72.0759 92.0383M73.9834 48.829L91.9739 27.1942C93.1886 25.7184 93.781 23.831 93.6203 21.9336C93.4597 20.0361 92.5562 18.2893 91.1004 17.0545C89.6548 15.8297 87.7674 15.2173 85.87 15.3578C83.9625 15.4984 82.1855 16.3818 80.9206 17.8175L62.7192 39.5928M73.9834 48.829L70.7607 52.7042L79.7259 60.2337C68.3212 74.5196 37.4301 108.483 18.3554 92.4599L59.6673 43.2571L62.7192 39.6028L73.9834 48.829ZM86.1678 22.8824L85.5667 23.6486" stroke="#23282A" stroke-width="2.5" stroke-linecap="square"/>
</g>
</svg>
