<svg width="112" height="112" viewBox="0 0 112 112" fill="none" xmlns="http://www.w3.org/2000/svg">
<g id="dough_illustration">
<path id="vector" d="M82.9596 13.5464L89.9835 3.11377M56.9296 26.0449L63.9536 15.6123M83.5793 42.0554L90.5 31.6228M62.0943 46.9102L23.0494 108.886C30.4865 96.9042 24.3922 77.2784 21.5 66.7425M80.5838 16.9551C80.5838 16.9551 69.8413 20.4671 65.7096 26.8713C61.1647 33.482 61.991 46.8069 61.991 46.8069C61.991 46.8069 74.3862 42.262 78.4147 35.4446C81.9266 28.8338 80.5838 16.9551 80.5838 16.9551ZM53.3144 29.9701C53.3144 29.9701 45.0509 37.7171 44.018 45.2575C42.6751 53.0045 49.1826 65.0898 49.1826 65.0898C49.1826 65.0898 58.2725 55.3802 59.0988 47.5299C59.512 40.0928 53.3144 29.9701 53.3144 29.9701ZM38.75 51.5584C38.75 51.5584 30.7964 59.6153 30.1766 67.1557C29.247 75.1093 36.271 86.7814 36.271 86.7814C36.271 86.7814 44.9476 76.6587 45.3608 68.8084C45.4641 61.4746 38.75 51.5584 38.75 51.5584ZM81.1003 47.1168C81.1003 47.1168 77.8982 57.9626 71.7006 62.3009C65.2964 67.0524 51.5584 66.6392 51.5584 66.6392C51.5584 66.6392 56.1033 54.1407 62.7141 49.9057C69.2216 46.1871 81.1003 47.1168 81.1003 47.1168ZM57.3428 84.509C50.6287 88.744 36.994 87.4012 36.994 87.4012C36.994 87.4012 42.3653 75.2126 49.2859 71.494C56 68.1886 67.7754 69.9446 67.7754 69.9446C67.7754 69.9446 63.8503 80.5838 57.3428 84.509Z" stroke="#23282A" stroke-width="2.506"/>
</g>
</svg>
