<svg width="112" height="112" viewBox="0 0 112 112" fill="none" xmlns="http://www.w3.org/2000/svg">
<g id="high-temperature_illustration">
<path id="vector" d="M57.7205 15.2949C53.8705 19.2649 52.1305 22.1649 50.4205 27.4149C46.0805 40.8049 62.2105 47.8049 61.1205 61.8449C60.4405 70.5649 54.9205 75.6649 50.4205 83.1649M30.9105 22.7649C27.0605 26.2949 25.3205 28.8749 23.6105 33.5549C19.2705 45.4749 35.4005 51.7049 34.3105 64.1949C33.6305 71.9549 28.1105 76.4949 23.6105 83.1749M85.6805 22.7649C81.8305 26.2949 80.0905 28.8749 78.3805 33.5549C74.0405 45.4749 90.1705 51.7049 89.0805 64.1949C88.4005 71.9549 82.8805 76.4949 78.3805 83.1749M84.0005 96.7049H24.0005" stroke="#23282A" stroke-width="2.5"/>
</g>
</svg>
