<svg width="112" height="112" viewBox="0 0 112 112" fill="none" xmlns="http://www.w3.org/2000/svg">
<g id="sous-vide_illustration">
<path id="vector" d="M18.8594 42.9689C20.1527 44.2713 21.4099 45.6099 24.0056 45.6099C29.0433 45.6099 29.0433 40.5451 34.1533 40.5451C36.6314 40.5451 37.8976 41.7389 39.1186 42.9689M93.1403 42.9689C91.847 44.2713 90.5898 45.6099 87.9941 45.6099C82.9564 45.6099 82.9564 40.5451 77.8464 40.5451C75.3682 40.5451 74.102 41.7389 72.881 42.9689M18.8594 60.2617C20.1527 61.564 21.4099 62.9026 24.0056 62.9026C29.0433 62.9026 29.0433 57.8378 34.1533 57.8378C36.6314 57.8378 37.8976 59.0316 39.1186 60.2617M93.1403 60.2617C91.847 61.564 90.5898 62.9026 87.9941 62.9026C82.9564 62.9026 82.9564 57.8378 77.8464 57.8378C75.3682 57.8378 74.102 59.0316 72.881 60.2617M47.1228 31.6361H52.5132M47.1228 40.6442H52.5132M47.1228 50.0232H52.5132M64.4065 69.0075V69.5682L64.8497 69.9119C68.594 72.7699 71.027 77.2559 71.027 82.3388C71.027 91.971 62.3263 99.5411 52.3595 97.6056C46.3089 96.4389 41.5063 91.8172 40.2582 85.4862C39.0101 79.1462 41.6149 73.3488 46.128 69.9119L46.5711 69.5682V24.6723C46.5711 19.7431 50.5687 15.7546 55.4888 15.7546C60.4089 15.7546 64.4065 19.7431 64.4065 24.6723V69.0075ZM46.128 70.0295L46.5711 69.6858V59.1308H64.4065V69.6858L64.8497 70.0295C68.594 72.8785 71.027 77.3735 71.027 82.4383C71.027 92.0614 62.3263 99.6315 52.3595 97.6961C46.3089 96.5293 41.5063 91.9167 40.2582 85.5948C39.0101 79.2637 41.6149 73.4754 46.1189 70.0295H46.128ZM71.4159 19.2005C71.4159 16.3244 73.7402 14 76.5982 14H76.6344C79.4924 14 81.8168 16.3244 81.8168 19.2005C81.8168 22.0766 79.4924 24.401 76.6344 24.401H76.5982C73.7402 24.401 71.4159 22.0766 71.4159 19.2005Z" stroke="#23282A" stroke-width="2.5" stroke-linecap="square"/>
</g>
</svg>
