<svg width="18" height="18" viewBox="0 0 18 18" fill="none" xmlns="http://www.w3.org/2000/svg">
<path d="M10.4282 16.4824L9.56885 17.3418C9.17822 17.6934 8.59229 17.6934 8.24072 17.3418L0.623536 9.76367C0.271974 9.37304 0.271974 8.78711 0.623537 8.43554L8.24072 0.818358C8.59229 0.466795 9.17822 0.466796 9.56885 0.818358L10.4282 1.67773C10.7798 2.06836 10.7798 2.6543 10.4282 3.04492L5.70166 7.53711L16.9126 7.53711C17.4595 7.53711 17.8501 7.92773 17.8501 8.47461L17.8501 9.72461C17.8501 10.2324 17.4595 10.6621 16.9126 10.6621L5.70166 10.6621L10.4282 15.1152C10.7798 15.5059 10.8188 16.0918 10.4282 16.4824Z" fill="black" fill-opacity="0.66"/>
</svg>
