<svg width="32" height="32" viewBox="0 0 32 32" fill="none" xmlns="http://www.w3.org/2000/svg">
<g clip-path="url(#clip0_1936_28184)">
<path d="M19.4142 16.0007C19.4142 14.1153 17.8858 12.5873 16.0007 12.5873C14.1153 12.5873 12.5873 14.1156 12.5873 16.0007C12.5873 17.8858 14.1156 19.4142 16.0007 19.4142C17.8858 19.4142 19.4142 17.8862 19.4142 16.0007Z" fill="white"/>
<path fill-rule="evenodd" clip-rule="evenodd" d="M15.6597 7.60545C15.4526 7.60538 15.2607 7.60532 15.0823 7.60553V7.60329C13.1738 7.60553 12.8078 7.61833 11.8631 7.66089C10.8647 7.70665 10.3226 7.87305 9.96169 8.01385C9.48392 8.20009 9.14249 8.42185 8.78409 8.78025C8.42568 9.13865 8.20329 9.48009 8.01768 9.95785C7.87753 10.3188 7.71081 10.8606 7.66505 11.859C7.61609 12.9386 7.60617 13.2612 7.60617 15.9956C7.60617 18.73 7.61609 19.0545 7.66505 20.1338C7.71049 21.1322 7.87753 21.674 8.01768 22.0346C8.20393 22.5127 8.42568 22.8532 8.78409 23.2116C9.14249 23.57 9.48392 23.7918 9.96169 23.9774C10.323 24.1175 10.8647 24.2842 11.8631 24.3303C12.9428 24.3796 13.267 24.3902 16.001 24.3902C18.7351 24.3902 19.0596 24.3793 20.139 24.3303C21.1374 24.2846 21.6794 24.1182 22.0401 23.9774C22.5182 23.7918 22.8583 23.57 23.2167 23.2116C23.5751 22.8535 23.7975 22.513 23.9831 22.0353C24.1233 21.6746 24.29 21.1329 24.3358 20.1345C24.385 19.0548 24.3956 18.7306 24.3956 15.9978C24.3956 13.265 24.3847 12.9406 24.3358 11.8612C24.2903 10.8628 24.1233 10.321 23.9831 9.96041C23.7969 9.48265 23.5751 9.14121 23.2167 8.78281C22.8586 8.42441 22.5178 8.20265 22.0401 8.01705C21.6791 7.87689 21.1374 7.71017 20.139 7.66441C19.0593 7.61545 18.7351 7.60553 16.001 7.60553C15.8829 7.60553 15.7692 7.60549 15.6597 7.60545ZM20.2382 10.5342C20.2382 9.85545 20.7886 9.30569 21.467 9.30569C22.1454 9.30569 22.6958 9.85577 22.6958 10.5342C22.6958 11.2126 22.1454 11.763 21.467 11.763C20.7886 11.763 20.2382 11.2129 20.2382 10.5342ZM10.7422 16.0004C10.7422 13.0964 13.0967 10.7418 16.0007 10.7418C18.9047 10.7418 21.2586 13.0964 21.2586 16.0004C21.2586 18.9044 18.9047 21.258 16.0007 21.258C13.0967 21.258 10.7422 18.9044 10.7422 16.0004Z" fill="white"/>
<path fill-rule="evenodd" clip-rule="evenodd" d="M32 16C32 24.8366 24.8366 32 16 32C7.16344 32 0 24.8366 0 16C0 7.16344 7.16344 0 16 0C24.8366 0 32 7.16344 32 16ZM11.7786 5.82185C12.8711 5.77225 13.2199 5.76009 16.001 5.76009C18.7799 5.7601 19.1279 5.77194 20.2196 5.82153C21.3095 5.87145 22.0542 6.04425 22.707 6.29737C23.3812 6.55881 23.9508 6.90857 24.5204 7.47817C25.09 8.04745 25.4398 8.61865 25.7022 9.29225C25.954 9.94345 26.1268 10.6874 26.178 11.7777C26.227 12.8702 26.2398 13.219 26.2398 16.0001C26.2398 18.7812 26.227 19.1294 26.178 20.2215C26.1268 21.3114 25.954 22.0558 25.7022 22.707C25.4398 23.3802 25.09 23.9514 24.5204 24.5207C23.9514 25.0903 23.3809 25.441 22.7076 25.7025C22.0561 25.9559 21.3111 26.1284 20.2209 26.1783C19.1287 26.2279 18.7802 26.2401 15.9994 26.2401C13.2186 26.2401 12.8698 26.2279 11.7777 26.1783C10.6878 26.1284 9.94345 25.9556 9.29193 25.7025C8.61864 25.441 8.04745 25.0903 7.47849 24.5207C6.90889 23.9514 6.55912 23.3802 6.29737 22.7066C6.04425 22.0554 5.87177 21.3114 5.82153 20.2212C5.77225 19.129 5.75977 18.7809 5.75977 16.0001C5.75977 13.2193 5.77257 12.8698 5.82153 11.7777C5.87081 10.6878 6.04361 9.94345 6.29737 9.29225C6.55977 8.61897 6.90953 8.04777 7.47913 7.47849C8.04841 6.90921 8.61961 6.55913 9.29321 6.29769C9.94441 6.04425 10.6884 5.87177 11.7786 5.82185Z" fill="white"/>
</g>
<defs>
<clipPath id="clip0_1936_28184">
<rect width="32" height="32" fill="white"/>
</clipPath>
</defs>
</svg>
