<svg width="32" height="32" viewBox="0 0 32 32" fill="none" xmlns="http://www.w3.org/2000/svg">
<g id="material-symbols:arrow-circle-left">
<path id="Vector" d="M16.0003 21.3337L17.867 19.467L15.7337 17.3337H21.3337V14.667H15.7337L17.867 12.5337L16.0003 10.667L10.667 16.0003L16.0003 21.3337ZM16.0003 29.3337C14.1559 29.3337 12.4226 28.9834 10.8003 28.283C9.17811 27.5825 7.76699 26.6328 6.56699 25.4337C5.36699 24.2345 4.41722 22.8234 3.71766 21.2003C3.01811 19.5772 2.66788 17.8439 2.66699 16.0003C2.6661 14.1568 3.01633 12.4234 3.71766 10.8003C4.41899 9.17721 5.36877 7.7661 6.56699 6.56699C7.76522 5.36788 9.17633 4.4181 10.8003 3.71766C12.4243 3.01721 14.1577 2.66699 16.0003 2.66699C17.843 2.66699 19.5763 3.01721 21.2003 3.71766C22.8243 4.4181 24.2354 5.36788 25.4337 6.56699C26.6319 7.7661 27.5821 9.17721 28.2843 10.8003C28.9865 12.4234 29.3363 14.1568 29.3337 16.0003C29.331 17.8439 28.9808 19.5772 28.283 21.2003C27.5852 22.8234 26.6354 24.2345 25.4337 25.4337C24.2319 26.6328 22.8208 27.583 21.2003 28.2843C19.5799 28.9857 17.8465 29.3354 16.0003 29.3337Z" fill="#D2D2D2"/>
</g>
</svg>
