<svg width="32" height="32" viewBox="0 0 32 32" fill="none" xmlns="http://www.w3.org/2000/svg">
<g clip-path="url(#clip0_1936_28186)">
<path d="M16 0C7.16379 0 0 7.16379 0 16C0 22.7779 4.21663 28.5735 10.1689 30.9044C10.0293 29.6388 9.90288 27.6912 10.2242 26.3098C10.5152 25.0614 12.1007 18.3572 12.1007 18.3572C12.1007 18.3572 11.6227 17.3985 11.6227 15.9816C11.6227 13.7574 12.9119 12.0955 14.5172 12.0955C15.8828 12.0955 16.5412 13.12 16.5412 14.3486C16.5412 15.7208 15.6668 17.7738 15.2165 19.6754C14.8398 21.2675 16.0145 22.5672 17.5855 22.5672C20.43 22.5672 22.6147 19.5687 22.6147 15.2402C22.6147 11.4094 19.8624 8.73087 15.9315 8.73087C11.3791 8.73087 8.70716 12.1455 8.70716 15.6747C8.70716 17.0495 9.23654 18.5244 9.89761 19.3264C10.028 19.4844 10.0477 19.624 10.0082 19.7847C9.88708 20.2904 9.61712 21.3768 9.56444 21.5993C9.49465 21.8917 9.33268 21.9549 9.02979 21.814C7.03078 20.8843 5.78239 17.9621 5.78239 15.6155C5.78239 10.5679 9.44988 5.93383 16.3542 5.93383C21.9049 5.93383 26.2176 9.8884 26.2176 15.1743C26.2176 20.4602 22.7411 25.1259 17.9147 25.1259C16.2937 25.1259 14.7687 24.2831 14.2472 23.2889C14.2472 23.2889 13.4453 26.344 13.2504 27.092C12.8895 28.4813 11.9137 30.2235 11.2619 31.2863C12.7592 31.7498 14.35 32 15.9987 32C24.8349 32 31.9987 24.8362 31.9987 16C31.9987 7.16379 24.8362 0 16 0Z" fill="white"/>
</g>
<defs>
<clipPath id="clip0_1936_28186">
<rect width="32" height="32" fill="white"/>
</clipPath>
</defs>
</svg>
