<svg width="32" height="32" viewBox="0 0 32 32" fill="none" xmlns="http://www.w3.org/2000/svg">
<g clip-path="url(#clip0_1936_28188)">
<path fill-rule="evenodd" clip-rule="evenodd" d="M32 16C32 24.8366 24.8366 32 16 32C7.16344 32 0 24.8366 0 16C0 7.16344 7.16344 0 16 0C24.8366 0 32 7.16344 32 16ZM24.3349 8.97883C25.2546 9.22535 25.9775 9.94831 26.2217 10.8656C26.6673 12.5296 26.6673 15.9999 26.6673 15.9999C26.6673 15.9999 26.6673 19.4701 26.2217 21.1341C25.9752 22.0538 25.2522 22.7744 24.3349 23.0209C22.6709 23.4665 16.0007 23.4665 16.0007 23.4665C16.0007 23.4665 9.33043 23.4665 7.66643 23.0209C6.74673 22.7744 6.02376 22.0514 5.77961 21.1341C5.33398 19.4701 5.33398 15.9999 5.33398 15.9999C5.33398 15.9999 5.33398 12.5296 5.77961 10.8656C6.02613 9.94594 6.7491 9.22535 7.66643 8.97883C9.33043 8.5332 16.0007 8.5332 16.0007 8.5332C16.0007 8.5332 22.6709 8.5332 24.3349 8.97883ZM19.4092 15.9999L13.8673 12.7999V19.1999L19.4092 15.9999Z" fill="white"/>
</g>
<defs>
<clipPath id="clip0_1936_28188">
<rect width="32" height="32" fill="white"/>
</clipPath>
</defs>
</svg>
